<?xml version="1.0" encoding="utf-8" standalone="no"?>
<!DOCTYPE svg PUBLIC "-//W3C//DTD SVG 1.1//EN"
  "http://www.w3.org/Graphics/SVG/1.1/DTD/svg11.dtd">
<!-- Created with matplotlib (http://matplotlib.org/) -->
<svg height="352pt" version="1.1" viewBox="0 0 352 352" width="352pt" xmlns="http://www.w3.org/2000/svg" xmlns:xlink="http://www.w3.org/1999/xlink">
 <defs>
  <style type="text/css">
*{stroke-linecap:butt;stroke-linejoin:round;}
  </style>
 </defs>
 <g id="figure_1">
  <g id="patch_1">
   <path d="M 0 352.8 
L 352.8 352.8 
L 352.8 0 
L 0 0 
z
" style="fill:#ffffff;"/>
  </g>
  <g id="axes_1">
   <g id="patch_2">
    <path d="M 97.27 150.657917 
L 337.119243 150.657917 
L 337.119243 42.336 
L 97.27 42.336 
z
" style="fill:#e5e5e5;"/>
   </g>
   <g id="matplotlib.axis_1">
    <g id="xtick_1">
     <g id="line2d_1">
      <path clip-path="url(#pc010152a25)" d="M 97.27 150.657917 
L 97.27 42.336 
" style="fill:none;stroke:#ffffff;stroke-linecap:square;stroke-width:0.8;"/>
     </g>
     <g id="line2d_2">
      <defs>
       <path d="M 0 0 
L 0 3.5 
" id="m4933f674c5" style="stroke:#555555;stroke-width:0.8;"/>
      </defs>
      <g>
       <use style="fill:#555555;stroke:#555555;stroke-width:0.8;" x="97.27" xlink:href="#m4933f674c5" y="150.657917"/>
      </g>
     </g>
     <g id="text_1">
      <!-- 0 -->
      <defs>
       <path d="M 31.78125 66.40625 
Q 24.171875 66.40625 20.328125 58.90625 
Q 16.5 51.421875 16.5 36.375 
Q 16.5 21.390625 20.328125 13.890625 
Q 24.171875 6.390625 31.78125 6.390625 
Q 39.453125 6.390625 43.28125 13.890625 
Q 47.125 21.390625 47.125 36.375 
Q 47.125 51.421875 43.28125 58.90625 
Q 39.453125 66.40625 31.78125 66.40625 
M 31.78125 74.21875 
Q 44.046875 74.21875 50.515625 64.515625 
Q 56.984375 54.828125 56.984375 36.375 
Q 56.984375 17.96875 50.515625 8.265625 
Q 44.046875 -1.421875 31.78125 -1.421875 
Q 19.53125 -1.421875 13.0625 8.265625 
Q 6.59375 17.96875 6.59375 36.375 
Q 6.59375 54.828125 13.0625 64.515625 
Q 19.53125 74.21875 31.78125 74.21875 
" id="DejaVuSans-30"/>
      </defs>
      <g style="fill:#555555;" transform="translate(94.08875 165.256354)scale(0.1 -0.1)">
       <use xlink:href="#DejaVuSans-30"/>
      </g>
     </g>
    </g>
    <g id="xtick_2">
     <g id="line2d_3">
      <path clip-path="url(#pc010152a25)" d="M 138.862835 150.657917 
L 138.862835 42.336 
" style="fill:none;stroke:#ffffff;stroke-linecap:square;stroke-width:0.8;"/>
     </g>
     <g id="line2d_4">
      <g>
       <use style="fill:#555555;stroke:#555555;stroke-width:0.8;" x="138.862835" xlink:href="#m4933f674c5" y="150.657917"/>
      </g>
     </g>
     <g id="text_2">
      <!-- 250 -->
      <defs>
       <path d="M 19.1875 8.296875 
L 53.609375 8.296875 
L 53.609375 0 
L 7.328125 0 
L 7.328125 8.296875 
Q 12.9375 14.109375 22.625 23.890625 
Q 32.328125 33.6875 34.8125 36.53125 
Q 39.546875 41.84375 41.421875 45.53125 
Q 43.3125 49.21875 43.3125 52.78125 
Q 43.3125 58.59375 39.234375 62.25 
Q 35.15625 65.921875 28.609375 65.921875 
Q 23.96875 65.921875 18.8125 64.3125 
Q 13.671875 62.703125 7.8125 59.421875 
L 7.8125 69.390625 
Q 13.765625 71.78125 18.9375 73 
Q 24.125 74.21875 28.421875 74.21875 
Q 39.75 74.21875 46.484375 68.546875 
Q 53.21875 62.890625 53.21875 53.421875 
Q 53.21875 48.921875 51.53125 44.890625 
Q 49.859375 40.875 45.40625 35.40625 
Q 44.1875 33.984375 37.640625 27.21875 
Q 31.109375 20.453125 19.1875 8.296875 
" id="DejaVuSans-32"/>
       <path d="M 10.796875 72.90625 
L 49.515625 72.90625 
L 49.515625 64.59375 
L 19.828125 64.59375 
L 19.828125 46.734375 
Q 21.96875 47.46875 24.109375 47.828125 
Q 26.265625 48.1875 28.421875 48.1875 
Q 40.625 48.1875 47.75 41.5 
Q 54.890625 34.8125 54.890625 23.390625 
Q 54.890625 11.625 47.5625 5.09375 
Q 40.234375 -1.421875 26.90625 -1.421875 
Q 22.3125 -1.421875 17.546875 -0.640625 
Q 12.796875 0.140625 7.71875 1.703125 
L 7.71875 11.625 
Q 12.109375 9.234375 16.796875 8.0625 
Q 21.484375 6.890625 26.703125 6.890625 
Q 35.15625 6.890625 40.078125 11.328125 
Q 45.015625 15.765625 45.015625 23.390625 
Q 45.015625 31 40.078125 35.4375 
Q 35.15625 39.890625 26.703125 39.890625 
Q 22.75 39.890625 18.8125 39.015625 
Q 14.890625 38.140625 10.796875 36.28125 
z
" id="DejaVuSans-35"/>
      </defs>
      <g style="fill:#555555;" transform="translate(129.319085 165.256354)scale(0.1 -0.1)">
       <use xlink:href="#DejaVuSans-32"/>
       <use x="63.623047" xlink:href="#DejaVuSans-35"/>
       <use x="127.246094" xlink:href="#DejaVuSans-30"/>
      </g>
     </g>
    </g>
    <g id="xtick_3">
     <g id="line2d_5">
      <path clip-path="url(#pc010152a25)" d="M 180.45567 150.657917 
L 180.45567 42.336 
" style="fill:none;stroke:#ffffff;stroke-linecap:square;stroke-width:0.8;"/>
     </g>
     <g id="line2d_6">
      <g>
       <use style="fill:#555555;stroke:#555555;stroke-width:0.8;" x="180.45567" xlink:href="#m4933f674c5" y="150.657917"/>
      </g>
     </g>
     <g id="text_3">
      <!-- 500 -->
      <g style="fill:#555555;" transform="translate(170.91192 165.256354)scale(0.1 -0.1)">
       <use xlink:href="#DejaVuSans-35"/>
       <use x="63.623047" xlink:href="#DejaVuSans-30"/>
       <use x="127.246094" xlink:href="#DejaVuSans-30"/>
      </g>
     </g>
    </g>
    <g id="xtick_4">
     <g id="line2d_7">
      <path clip-path="url(#pc010152a25)" d="M 222.048505 150.657917 
L 222.048505 42.336 
" style="fill:none;stroke:#ffffff;stroke-linecap:square;stroke-width:0.8;"/>
     </g>
     <g id="line2d_8">
      <g>
       <use style="fill:#555555;stroke:#555555;stroke-width:0.8;" x="222.048505" xlink:href="#m4933f674c5" y="150.657917"/>
      </g>
     </g>
     <g id="text_4">
      <!-- 750 -->
      <defs>
       <path d="M 8.203125 72.90625 
L 55.078125 72.90625 
L 55.078125 68.703125 
L 28.609375 0 
L 18.3125 0 
L 43.21875 64.59375 
L 8.203125 64.59375 
z
" id="DejaVuSans-37"/>
      </defs>
      <g style="fill:#555555;" transform="translate(212.504755 165.256354)scale(0.1 -0.1)">
       <use xlink:href="#DejaVuSans-37"/>
       <use x="63.623047" xlink:href="#DejaVuSans-35"/>
       <use x="127.246094" xlink:href="#DejaVuSans-30"/>
      </g>
     </g>
    </g>
    <g id="xtick_5">
     <g id="line2d_9">
      <path clip-path="url(#pc010152a25)" d="M 263.64134 150.657917 
L 263.64134 42.336 
" style="fill:none;stroke:#ffffff;stroke-linecap:square;stroke-width:0.8;"/>
     </g>
     <g id="line2d_10">
      <g>
       <use style="fill:#555555;stroke:#555555;stroke-width:0.8;" x="263.64134" xlink:href="#m4933f674c5" y="150.657917"/>
      </g>
     </g>
     <g id="text_5">
      <!-- 1000 -->
      <defs>
       <path d="M 12.40625 8.296875 
L 28.515625 8.296875 
L 28.515625 63.921875 
L 10.984375 60.40625 
L 10.984375 69.390625 
L 28.421875 72.90625 
L 38.28125 72.90625 
L 38.28125 8.296875 
L 54.390625 8.296875 
L 54.390625 0 
L 12.40625 0 
z
" id="DejaVuSans-31"/>
      </defs>
      <g style="fill:#555555;" transform="translate(250.91634 165.256354)scale(0.1 -0.1)">
       <use xlink:href="#DejaVuSans-31"/>
       <use x="63.623047" xlink:href="#DejaVuSans-30"/>
       <use x="127.246094" xlink:href="#DejaVuSans-30"/>
       <use x="190.869141" xlink:href="#DejaVuSans-30"/>
      </g>
     </g>
    </g>
    <g id="xtick_6">
     <g id="line2d_11">
      <path clip-path="url(#pc010152a25)" d="M 305.234175 150.657917 
L 305.234175 42.336 
" style="fill:none;stroke:#ffffff;stroke-linecap:square;stroke-width:0.8;"/>
     </g>
     <g id="line2d_12">
      <g>
       <use style="fill:#555555;stroke:#555555;stroke-width:0.8;" x="305.234175" xlink:href="#m4933f674c5" y="150.657917"/>
      </g>
     </g>
     <g id="text_6">
      <!-- 1250 -->
      <g style="fill:#555555;" transform="translate(292.509175 165.256354)scale(0.1 -0.1)">
       <use xlink:href="#DejaVuSans-31"/>
       <use x="63.623047" xlink:href="#DejaVuSans-32"/>
       <use x="127.246094" xlink:href="#DejaVuSans-35"/>
       <use x="190.869141" xlink:href="#DejaVuSans-30"/>
      </g>
     </g>
    </g>
    <g id="text_7">
     <!-- number of occurences -->
     <defs>
      <path d="M 54.890625 33.015625 
L 54.890625 0 
L 45.90625 0 
L 45.90625 32.71875 
Q 45.90625 40.484375 42.875 44.328125 
Q 39.84375 48.1875 33.796875 48.1875 
Q 26.515625 48.1875 22.3125 43.546875 
Q 18.109375 38.921875 18.109375 30.90625 
L 18.109375 0 
L 9.078125 0 
L 9.078125 54.6875 
L 18.109375 54.6875 
L 18.109375 46.1875 
Q 21.34375 51.125 25.703125 53.5625 
Q 30.078125 56 35.796875 56 
Q 45.21875 56 50.046875 50.171875 
Q 54.890625 44.34375 54.890625 33.015625 
" id="DejaVuSans-6e"/>
      <path d="M 8.5 21.578125 
L 8.5 54.6875 
L 17.484375 54.6875 
L 17.484375 21.921875 
Q 17.484375 14.15625 20.5 10.265625 
Q 23.53125 6.390625 29.59375 6.390625 
Q 36.859375 6.390625 41.078125 11.03125 
Q 45.3125 15.671875 45.3125 23.6875 
L 45.3125 54.6875 
L 54.296875 54.6875 
L 54.296875 0 
L 45.3125 0 
L 45.3125 8.40625 
Q 42.046875 3.421875 37.71875 1 
Q 33.40625 -1.421875 27.6875 -1.421875 
Q 18.265625 -1.421875 13.375 4.4375 
Q 8.5 10.296875 8.5 21.578125 
M 31.109375 56 
z
" id="DejaVuSans-75"/>
      <path d="M 52 44.1875 
Q 55.375 50.25 60.0625 53.125 
Q 64.75 56 71.09375 56 
Q 79.640625 56 84.28125 50.015625 
Q 88.921875 44.046875 88.921875 33.015625 
L 88.921875 0 
L 79.890625 0 
L 79.890625 32.71875 
Q 79.890625 40.578125 77.09375 44.375 
Q 74.3125 48.1875 68.609375 48.1875 
Q 61.625 48.1875 57.5625 43.546875 
Q 53.515625 38.921875 53.515625 30.90625 
L 53.515625 0 
L 44.484375 0 
L 44.484375 32.71875 
Q 44.484375 40.625 41.703125 44.40625 
Q 38.921875 48.1875 33.109375 48.1875 
Q 26.21875 48.1875 22.15625 43.53125 
Q 18.109375 38.875 18.109375 30.90625 
L 18.109375 0 
L 9.078125 0 
L 9.078125 54.6875 
L 18.109375 54.6875 
L 18.109375 46.1875 
Q 21.1875 51.21875 25.484375 53.609375 
Q 29.78125 56 35.6875 56 
Q 41.65625 56 45.828125 52.96875 
Q 50 49.953125 52 44.1875 
" id="DejaVuSans-6d"/>
      <path d="M 48.6875 27.296875 
Q 48.6875 37.203125 44.609375 42.84375 
Q 40.53125 48.484375 33.40625 48.484375 
Q 26.265625 48.484375 22.1875 42.84375 
Q 18.109375 37.203125 18.109375 27.296875 
Q 18.109375 17.390625 22.1875 11.75 
Q 26.265625 6.109375 33.40625 6.109375 
Q 40.53125 6.109375 44.609375 11.75 
Q 48.6875 17.390625 48.6875 27.296875 
M 18.109375 46.390625 
Q 20.953125 51.265625 25.265625 53.625 
Q 29.59375 56 35.59375 56 
Q 45.5625 56 51.78125 48.09375 
Q 58.015625 40.1875 58.015625 27.296875 
Q 58.015625 14.40625 51.78125 6.484375 
Q 45.5625 -1.421875 35.59375 -1.421875 
Q 29.59375 -1.421875 25.265625 0.953125 
Q 20.953125 3.328125 18.109375 8.203125 
L 18.109375 0 
L 9.078125 0 
L 9.078125 75.984375 
L 18.109375 75.984375 
z
" id="DejaVuSans-62"/>
      <path d="M 56.203125 29.59375 
L 56.203125 25.203125 
L 14.890625 25.203125 
Q 15.484375 15.921875 20.484375 11.0625 
Q 25.484375 6.203125 34.421875 6.203125 
Q 39.59375 6.203125 44.453125 7.46875 
Q 49.3125 8.734375 54.109375 11.28125 
L 54.109375 2.78125 
Q 49.265625 0.734375 44.1875 -0.34375 
Q 39.109375 -1.421875 33.890625 -1.421875 
Q 20.796875 -1.421875 13.15625 6.1875 
Q 5.515625 13.8125 5.515625 26.8125 
Q 5.515625 40.234375 12.765625 48.109375 
Q 20.015625 56 32.328125 56 
Q 43.359375 56 49.78125 48.890625 
Q 56.203125 41.796875 56.203125 29.59375 
M 47.21875 32.234375 
Q 47.125 39.59375 43.09375 43.984375 
Q 39.0625 48.390625 32.421875 48.390625 
Q 24.90625 48.390625 20.390625 44.140625 
Q 15.875 39.890625 15.1875 32.171875 
z
" id="DejaVuSans-65"/>
      <path d="M 41.109375 46.296875 
Q 39.59375 47.171875 37.8125 47.578125 
Q 36.03125 48 33.890625 48 
Q 26.265625 48 22.1875 43.046875 
Q 18.109375 38.09375 18.109375 28.8125 
L 18.109375 0 
L 9.078125 0 
L 9.078125 54.6875 
L 18.109375 54.6875 
L 18.109375 46.1875 
Q 20.953125 51.171875 25.484375 53.578125 
Q 30.03125 56 36.53125 56 
Q 37.453125 56 38.578125 55.875 
Q 39.703125 55.765625 41.0625 55.515625 
z
" id="DejaVuSans-72"/>
      <path id="DejaVuSans-20"/>
      <path d="M 30.609375 48.390625 
Q 23.390625 48.390625 19.1875 42.75 
Q 14.984375 37.109375 14.984375 27.296875 
Q 14.984375 17.484375 19.15625 11.84375 
Q 23.34375 6.203125 30.609375 6.203125 
Q 37.796875 6.203125 41.984375 11.859375 
Q 46.1875 17.53125 46.1875 27.296875 
Q 46.1875 37.015625 41.984375 42.703125 
Q 37.796875 48.390625 30.609375 48.390625 
M 30.609375 56 
Q 42.328125 56 49.015625 48.375 
Q 55.71875 40.765625 55.71875 27.296875 
Q 55.71875 13.875 49.015625 6.21875 
Q 42.328125 -1.421875 30.609375 -1.421875 
Q 18.84375 -1.421875 12.171875 6.21875 
Q 5.515625 13.875 5.515625 27.296875 
Q 5.515625 40.765625 12.171875 48.375 
Q 18.84375 56 30.609375 56 
" id="DejaVuSans-6f"/>
      <path d="M 37.109375 75.984375 
L 37.109375 68.5 
L 28.515625 68.5 
Q 23.6875 68.5 21.796875 66.546875 
Q 19.921875 64.59375 19.921875 59.515625 
L 19.921875 54.6875 
L 34.71875 54.6875 
L 34.71875 47.703125 
L 19.921875 47.703125 
L 19.921875 0 
L 10.890625 0 
L 10.890625 47.703125 
L 2.296875 47.703125 
L 2.296875 54.6875 
L 10.890625 54.6875 
L 10.890625 58.5 
Q 10.890625 67.625 15.140625 71.796875 
Q 19.390625 75.984375 28.609375 75.984375 
z
" id="DejaVuSans-66"/>
      <path d="M 48.78125 52.59375 
L 48.78125 44.1875 
Q 44.96875 46.296875 41.140625 47.34375 
Q 37.3125 48.390625 33.40625 48.390625 
Q 24.65625 48.390625 19.8125 42.84375 
Q 14.984375 37.3125 14.984375 27.296875 
Q 14.984375 17.28125 19.8125 11.734375 
Q 24.65625 6.203125 33.40625 6.203125 
Q 37.3125 6.203125 41.140625 7.25 
Q 44.96875 8.296875 48.78125 10.40625 
L 48.78125 2.09375 
Q 45.015625 0.34375 40.984375 -0.53125 
Q 36.96875 -1.421875 32.421875 -1.421875 
Q 20.0625 -1.421875 12.78125 6.34375 
Q 5.515625 14.109375 5.515625 27.296875 
Q 5.515625 40.671875 12.859375 48.328125 
Q 20.21875 56 33.015625 56 
Q 37.15625 56 41.109375 55.140625 
Q 45.0625 54.296875 48.78125 52.59375 
" id="DejaVuSans-63"/>
      <path d="M 44.28125 53.078125 
L 44.28125 44.578125 
Q 40.484375 46.53125 36.375 47.5 
Q 32.28125 48.484375 27.875 48.484375 
Q 21.1875 48.484375 17.84375 46.4375 
Q 14.5 44.390625 14.5 40.28125 
Q 14.5 37.15625 16.890625 35.375 
Q 19.28125 33.59375 26.515625 31.984375 
L 29.59375 31.296875 
Q 39.15625 29.25 43.1875 25.515625 
Q 47.21875 21.78125 47.21875 15.09375 
Q 47.21875 7.46875 41.1875 3.015625 
Q 35.15625 -1.421875 24.609375 -1.421875 
Q 20.21875 -1.421875 15.453125 -0.5625 
Q 10.6875 0.296875 5.421875 2 
L 5.421875 11.28125 
Q 10.40625 8.6875 15.234375 7.390625 
Q 20.0625 6.109375 24.8125 6.109375 
Q 31.15625 6.109375 34.5625 8.28125 
Q 37.984375 10.453125 37.984375 14.40625 
Q 37.984375 18.0625 35.515625 20.015625 
Q 33.0625 21.96875 24.703125 23.78125 
L 21.578125 24.515625 
Q 13.234375 26.265625 9.515625 29.90625 
Q 5.8125 33.546875 5.8125 39.890625 
Q 5.8125 47.609375 11.28125 51.796875 
Q 16.75 56 26.8125 56 
Q 31.78125 56 36.171875 55.265625 
Q 40.578125 54.546875 44.28125 53.078125 
" id="DejaVuSans-73"/>
     </defs>
     <g style="fill:#555555;" transform="translate(166.823449 178.174636)scale(0.09 -0.09)">
      <use xlink:href="#DejaVuSans-6e"/>
      <use x="63.378906" xlink:href="#DejaVuSans-75"/>
      <use x="126.757812" xlink:href="#DejaVuSans-6d"/>
      <use x="224.169922" xlink:href="#DejaVuSans-62"/>
      <use x="287.646484" xlink:href="#DejaVuSans-65"/>
      <use x="349.169922" xlink:href="#DejaVuSans-72"/>
      <use x="390.283203" xlink:href="#DejaVuSans-20"/>
      <use x="422.070312" xlink:href="#DejaVuSans-6f"/>
      <use x="483.251953" xlink:href="#DejaVuSans-66"/>
      <use x="518.457031" xlink:href="#DejaVuSans-20"/>
      <use x="550.244141" xlink:href="#DejaVuSans-6f"/>
      <use x="611.425781" xlink:href="#DejaVuSans-63"/>
      <use x="666.40625" xlink:href="#DejaVuSans-63"/>
      <use x="721.386719" xlink:href="#DejaVuSans-75"/>
      <use x="784.765625" xlink:href="#DejaVuSans-72"/>
      <use x="825.847656" xlink:href="#DejaVuSans-65"/>
      <use x="887.371094" xlink:href="#DejaVuSans-6e"/>
      <use x="950.75" xlink:href="#DejaVuSans-63"/>
      <use x="1005.730469" xlink:href="#DejaVuSans-65"/>
      <use x="1067.253906" xlink:href="#DejaVuSans-73"/>
     </g>
    </g>
   </g>
   <g id="matplotlib.axis_2">
    <g id="ytick_1">
     <g id="line2d_13">
      <path clip-path="url(#pc010152a25)" d="M 97.27 129.321782 
L 337.119243 129.321782 
" style="fill:none;stroke:#ffffff;stroke-linecap:square;stroke-width:0.8;"/>
     </g>
     <g id="text_8">
      <!-- theory              -->
      <defs>
       <path d="M 18.3125 70.21875 
L 18.3125 54.6875 
L 36.8125 54.6875 
L 36.8125 47.703125 
L 18.3125 47.703125 
L 18.3125 18.015625 
Q 18.3125 11.328125 20.140625 9.421875 
Q 21.96875 7.515625 27.59375 7.515625 
L 36.8125 7.515625 
L 36.8125 0 
L 27.59375 0 
Q 17.1875 0 13.234375 3.875 
Q 9.28125 7.765625 9.28125 18.015625 
L 9.28125 47.703125 
L 2.6875 47.703125 
L 2.6875 54.6875 
L 9.28125 54.6875 
L 9.28125 70.21875 
z
" id="DejaVuSans-74"/>
       <path d="M 54.890625 33.015625 
L 54.890625 0 
L 45.90625 0 
L 45.90625 32.71875 
Q 45.90625 40.484375 42.875 44.328125 
Q 39.84375 48.1875 33.796875 48.1875 
Q 26.515625 48.1875 22.3125 43.546875 
Q 18.109375 38.921875 18.109375 30.90625 
L 18.109375 0 
L 9.078125 0 
L 9.078125 75.984375 
L 18.109375 75.984375 
L 18.109375 46.1875 
Q 21.34375 51.125 25.703125 53.5625 
Q 30.078125 56 35.796875 56 
Q 45.21875 56 50.046875 50.171875 
Q 54.890625 44.34375 54.890625 33.015625 
" id="DejaVuSans-68"/>
       <path d="M 32.171875 -5.078125 
Q 28.375 -14.84375 24.75 -17.8125 
Q 21.140625 -20.796875 15.09375 -20.796875 
L 7.90625 -20.796875 
L 7.90625 -13.28125 
L 13.1875 -13.28125 
Q 16.890625 -13.28125 18.9375 -11.515625 
Q 21 -9.765625 23.484375 -3.21875 
L 25.09375 0.875 
L 2.984375 54.6875 
L 12.5 54.6875 
L 29.59375 11.921875 
L 46.6875 54.6875 
L 56.203125 54.6875 
z
" id="DejaVuSans-79"/>
      </defs>
      <g style="fill:#555555;" transform="translate(20.08875 132.93104)scale(0.095 -0.095)">
       <use xlink:href="#DejaVuSans-74"/>
       <use x="39.208984" xlink:href="#DejaVuSans-68"/>
       <use x="102.587891" xlink:href="#DejaVuSans-65"/>
       <use x="164.111328" xlink:href="#DejaVuSans-6f"/>
       <use x="225.292969" xlink:href="#DejaVuSans-72"/>
       <use x="266.40625" xlink:href="#DejaVuSans-79"/>
       <use x="325.585938" xlink:href="#DejaVuSans-20"/>
       <use x="357.373047" xlink:href="#DejaVuSans-20"/>
       <use x="389.160156" xlink:href="#DejaVuSans-20"/>
       <use x="420.947266" xlink:href="#DejaVuSans-20"/>
       <use x="452.734375" xlink:href="#DejaVuSans-20"/>
       <use x="484.521484" xlink:href="#DejaVuSans-20"/>
       <use x="516.308594" xlink:href="#DejaVuSans-20"/>
       <use x="548.095703" xlink:href="#DejaVuSans-20"/>
       <use x="579.882812" xlink:href="#DejaVuSans-20"/>
       <use x="611.669922" xlink:href="#DejaVuSans-20"/>
       <use x="643.457031" xlink:href="#DejaVuSans-20"/>
       <use x="675.244141" xlink:href="#DejaVuSans-20"/>
       <use x="707.03125" xlink:href="#DejaVuSans-20"/>
      </g>
     </g>
    </g>
    <g id="ytick_2">
     <g id="line2d_14">
      <path clip-path="url(#pc010152a25)" d="M 97.27 108.806267 
L 337.119243 108.806267 
" style="fill:none;stroke:#ffffff;stroke-linecap:square;stroke-width:0.8;"/>
     </g>
     <g id="text_9">
      <!-- mach                -->
      <defs>
       <path d="M 34.28125 27.484375 
Q 23.390625 27.484375 19.1875 25 
Q 14.984375 22.515625 14.984375 16.5 
Q 14.984375 11.71875 18.140625 8.90625 
Q 21.296875 6.109375 26.703125 6.109375 
Q 34.1875 6.109375 38.703125 11.40625 
Q 43.21875 16.703125 43.21875 25.484375 
L 43.21875 27.484375 
z
M 52.203125 31.203125 
L 52.203125 0 
L 43.21875 0 
L 43.21875 8.296875 
Q 40.140625 3.328125 35.546875 0.953125 
Q 30.953125 -1.421875 24.3125 -1.421875 
Q 15.921875 -1.421875 10.953125 3.296875 
Q 6 8.015625 6 15.921875 
Q 6 25.140625 12.171875 29.828125 
Q 18.359375 34.515625 30.609375 34.515625 
L 43.21875 34.515625 
L 43.21875 35.40625 
Q 43.21875 41.609375 39.140625 45 
Q 35.0625 48.390625 27.6875 48.390625 
Q 23 48.390625 18.546875 47.265625 
Q 14.109375 46.140625 10.015625 43.890625 
L 10.015625 52.203125 
Q 14.9375 54.109375 19.578125 55.046875 
Q 24.21875 56 28.609375 56 
Q 40.484375 56 46.34375 49.84375 
Q 52.203125 43.703125 52.203125 31.203125 
" id="DejaVuSans-61"/>
      </defs>
      <g style="fill:#555555;" transform="translate(18.662266 112.415525)scale(0.095 -0.095)">
       <use xlink:href="#DejaVuSans-6d"/>
       <use x="97.412109" xlink:href="#DejaVuSans-61"/>
       <use x="158.691406" xlink:href="#DejaVuSans-63"/>
       <use x="213.671875" xlink:href="#DejaVuSans-68"/>
       <use x="277.050781" xlink:href="#DejaVuSans-20"/>
       <use x="308.837891" xlink:href="#DejaVuSans-20"/>
       <use x="340.625" xlink:href="#DejaVuSans-20"/>
       <use x="372.412109" xlink:href="#DejaVuSans-20"/>
       <use x="404.199219" xlink:href="#DejaVuSans-20"/>
       <use x="435.986328" xlink:href="#DejaVuSans-20"/>
       <use x="467.773438" xlink:href="#DejaVuSans-20"/>
       <use x="499.560547" xlink:href="#DejaVuSans-20"/>
       <use x="531.347656" xlink:href="#DejaVuSans-20"/>
       <use x="563.134766" xlink:href="#DejaVuSans-20"/>
       <use x="594.921875" xlink:href="#DejaVuSans-20"/>
       <use x="626.708984" xlink:href="#DejaVuSans-20"/>
       <use x="658.496094" xlink:href="#DejaVuSans-20"/>
       <use x="690.283203" xlink:href="#DejaVuSans-20"/>
       <use x="722.070312" xlink:href="#DejaVuSans-20"/>
      </g>
     </g>
    </g>
    <g id="ytick_3">
     <g id="line2d_15">
      <path clip-path="url(#pc010152a25)" d="M 97.27 88.290753 
L 337.119243 88.290753 
" style="fill:none;stroke:#ffffff;stroke-linecap:square;stroke-width:0.8;"/>
     </g>
     <g id="text_10">
      <!-- layer               -->
      <defs>
       <path d="M 9.421875 75.984375 
L 18.40625 75.984375 
L 18.40625 0 
L 9.421875 0 
z
" id="DejaVuSans-6c"/>
      </defs>
      <g style="fill:#555555;" transform="translate(24.166328 91.90001)scale(0.095 -0.095)">
       <use xlink:href="#DejaVuSans-6c"/>
       <use x="27.783203" xlink:href="#DejaVuSans-61"/>
       <use x="89.0625" xlink:href="#DejaVuSans-79"/>
       <use x="148.242188" xlink:href="#DejaVuSans-65"/>
       <use x="209.765625" xlink:href="#DejaVuSans-72"/>
       <use x="250.878906" xlink:href="#DejaVuSans-20"/>
       <use x="282.666016" xlink:href="#DejaVuSans-20"/>
       <use x="314.453125" xlink:href="#DejaVuSans-20"/>
       <use x="346.240234" xlink:href="#DejaVuSans-20"/>
       <use x="378.027344" xlink:href="#DejaVuSans-20"/>
       <use x="409.814453" xlink:href="#DejaVuSans-20"/>
       <use x="441.601562" xlink:href="#DejaVuSans-20"/>
       <use x="473.388672" xlink:href="#DejaVuSans-20"/>
       <use x="505.175781" xlink:href="#DejaVuSans-20"/>
       <use x="536.962891" xlink:href="#DejaVuSans-20"/>
       <use x="568.75" xlink:href="#DejaVuSans-20"/>
       <use x="600.537109" xlink:href="#DejaVuSans-20"/>
       <use x="632.324219" xlink:href="#DejaVuSans-20"/>
       <use x="664.111328" xlink:href="#DejaVuSans-20"/>
      </g>
     </g>
    </g>
    <g id="ytick_4">
     <g id="line2d_16">
      <path clip-path="url(#pc010152a25)" d="M 97.27 67.775238 
L 337.119243 67.775238 
" style="fill:none;stroke:#ffffff;stroke-linecap:square;stroke-width:0.8;"/>
     </g>
     <g id="text_11">
      <!-- pressure            -->
      <defs>
       <path d="M 18.109375 8.203125 
L 18.109375 -20.796875 
L 9.078125 -20.796875 
L 9.078125 54.6875 
L 18.109375 54.6875 
L 18.109375 46.390625 
Q 20.953125 51.265625 25.265625 53.625 
Q 29.59375 56 35.59375 56 
Q 45.5625 56 51.78125 48.09375 
Q 58.015625 40.1875 58.015625 27.296875 
Q 58.015625 14.40625 51.78125 6.484375 
Q 45.5625 -1.421875 35.59375 -1.421875 
Q 29.59375 -1.421875 25.265625 0.953125 
Q 20.953125 3.328125 18.109375 8.203125 
M 48.6875 27.296875 
Q 48.6875 37.203125 44.609375 42.84375 
Q 40.53125 48.484375 33.40625 48.484375 
Q 26.265625 48.484375 22.1875 42.84375 
Q 18.109375 37.203125 18.109375 27.296875 
Q 18.109375 17.390625 22.1875 11.75 
Q 26.265625 6.109375 33.40625 6.109375 
Q 40.53125 6.109375 44.609375 11.75 
Q 48.6875 17.390625 48.6875 27.296875 
" id="DejaVuSans-70"/>
      </defs>
      <g style="fill:#555555;" transform="translate(15.613359 71.384496)scale(0.095 -0.095)">
       <use xlink:href="#DejaVuSans-70"/>
       <use x="63.476562" xlink:href="#DejaVuSans-72"/>
       <use x="104.558594" xlink:href="#DejaVuSans-65"/>
       <use x="166.082031" xlink:href="#DejaVuSans-73"/>
       <use x="218.181641" xlink:href="#DejaVuSans-73"/>
       <use x="270.28125" xlink:href="#DejaVuSans-75"/>
       <use x="333.660156" xlink:href="#DejaVuSans-72"/>
       <use x="374.742188" xlink:href="#DejaVuSans-65"/>
       <use x="436.265625" xlink:href="#DejaVuSans-20"/>
       <use x="468.052734" xlink:href="#DejaVuSans-20"/>
       <use x="499.839844" xlink:href="#DejaVuSans-20"/>
       <use x="531.626953" xlink:href="#DejaVuSans-20"/>
       <use x="563.414062" xlink:href="#DejaVuSans-20"/>
       <use x="595.201172" xlink:href="#DejaVuSans-20"/>
       <use x="626.988281" xlink:href="#DejaVuSans-20"/>
       <use x="658.775391" xlink:href="#DejaVuSans-20"/>
       <use x="690.5625" xlink:href="#DejaVuSans-20"/>
       <use x="722.349609" xlink:href="#DejaVuSans-20"/>
       <use x="754.136719" xlink:href="#DejaVuSans-20"/>
      </g>
     </g>
    </g>
    <g id="ytick_5">
     <g id="line2d_17">
      <path clip-path="url(#pc010152a25)" d="M 97.27 47.259723 
L 337.119243 47.259723 
" style="fill:none;stroke:#ffffff;stroke-linecap:square;stroke-width:0.8;"/>
     </g>
     <g id="text_12">
      <!-- boundary            -->
      <defs>
       <path d="M 45.40625 46.390625 
L 45.40625 75.984375 
L 54.390625 75.984375 
L 54.390625 0 
L 45.40625 0 
L 45.40625 8.203125 
Q 42.578125 3.328125 38.25 0.953125 
Q 33.9375 -1.421875 27.875 -1.421875 
Q 17.96875 -1.421875 11.734375 6.484375 
Q 5.515625 14.40625 5.515625 27.296875 
Q 5.515625 40.1875 11.734375 48.09375 
Q 17.96875 56 27.875 56 
Q 33.9375 56 38.25 53.625 
Q 42.578125 51.265625 45.40625 46.390625 
M 14.796875 27.296875 
Q 14.796875 17.390625 18.875 11.75 
Q 22.953125 6.109375 30.078125 6.109375 
Q 37.203125 6.109375 41.296875 11.75 
Q 45.40625 17.390625 45.40625 27.296875 
Q 45.40625 37.203125 41.296875 42.84375 
Q 37.203125 48.484375 30.078125 48.484375 
Q 22.953125 48.484375 18.875 42.84375 
Q 14.796875 37.203125 14.796875 27.296875 
" id="DejaVuSans-64"/>
      </defs>
      <g style="fill:#555555;" transform="translate(11.792578 50.868981)scale(0.095 -0.095)">
       <use xlink:href="#DejaVuSans-62"/>
       <use x="63.476562" xlink:href="#DejaVuSans-6f"/>
       <use x="124.658203" xlink:href="#DejaVuSans-75"/>
       <use x="188.037109" xlink:href="#DejaVuSans-6e"/>
       <use x="251.416016" xlink:href="#DejaVuSans-64"/>
       <use x="314.892578" xlink:href="#DejaVuSans-61"/>
       <use x="376.171875" xlink:href="#DejaVuSans-72"/>
       <use x="417.285156" xlink:href="#DejaVuSans-79"/>
       <use x="476.464844" xlink:href="#DejaVuSans-20"/>
       <use x="508.251953" xlink:href="#DejaVuSans-20"/>
       <use x="540.039062" xlink:href="#DejaVuSans-20"/>
       <use x="571.826172" xlink:href="#DejaVuSans-20"/>
       <use x="603.613281" xlink:href="#DejaVuSans-20"/>
       <use x="635.400391" xlink:href="#DejaVuSans-20"/>
       <use x="667.1875" xlink:href="#DejaVuSans-20"/>
       <use x="698.974609" xlink:href="#DejaVuSans-20"/>
       <use x="730.761719" xlink:href="#DejaVuSans-20"/>
       <use x="762.548828" xlink:href="#DejaVuSans-20"/>
       <use x="794.335938" xlink:href="#DejaVuSans-20"/>
      </g>
     </g>
    </g>
   </g>
   <g id="patch_3">
    <path clip-path="url(#pc010152a25)" d="M 97.27 145.734193 
L 242.678551 145.734193 
L 242.678551 129.321782 
L 97.27 129.321782 
z
" style="fill:#e24a33;"/>
   </g>
   <g id="patch_4">
    <path clip-path="url(#pc010152a25)" d="M 97.27 125.218679 
L 249.333405 125.218679 
L 249.333405 108.806267 
L 97.27 108.806267 
z
" style="fill:#e24a33;"/>
   </g>
   <g id="patch_5">
    <path clip-path="url(#pc010152a25)" d="M 97.27 104.703164 
L 295.584637 104.703164 
L 295.584637 88.290753 
L 97.27 88.290753 
z
" style="fill:#e24a33;"/>
   </g>
   <g id="patch_6">
    <path clip-path="url(#pc010152a25)" d="M 97.27 84.18765 
L 318.710254 84.18765 
L 318.710254 67.775238 
L 97.27 67.775238 
z
" style="fill:#e24a33;"/>
   </g>
   <g id="patch_7">
    <path clip-path="url(#pc010152a25)" d="M 97.27 63.672135 
L 325.69785 63.672135 
L 325.69785 47.259723 
L 97.27 47.259723 
z
" style="fill:#e24a33;"/>
   </g>
   <g id="patch_8">
    <path d="M 97.27 150.657917 
L 97.27 42.336 
" style="fill:none;stroke:#ffffff;stroke-linecap:square;stroke-linejoin:miter;"/>
   </g>
   <g id="patch_9">
    <path d="M 337.119243 150.657917 
L 337.119243 42.336 
" style="fill:none;stroke:#ffffff;stroke-linecap:square;stroke-linejoin:miter;"/>
   </g>
   <g id="patch_10">
    <path d="M 97.27 150.657917 
L 337.119243 150.657917 
" style="fill:none;stroke:#ffffff;stroke-linecap:square;stroke-linejoin:miter;"/>
   </g>
   <g id="patch_11">
    <path d="M 97.27 42.336 
L 337.119243 42.336 
" style="fill:none;stroke:#ffffff;stroke-linecap:square;stroke-linejoin:miter;"/>
   </g>
   <g id="text_13">
    <!-- Cluster 1 (1419 terms) -->
    <defs>
     <path d="M 64.40625 67.28125 
L 64.40625 56.890625 
Q 59.421875 61.53125 53.78125 63.8125 
Q 48.140625 66.109375 41.796875 66.109375 
Q 29.296875 66.109375 22.65625 58.46875 
Q 16.015625 50.828125 16.015625 36.375 
Q 16.015625 21.96875 22.65625 14.328125 
Q 29.296875 6.6875 41.796875 6.6875 
Q 48.140625 6.6875 53.78125 8.984375 
Q 59.421875 11.28125 64.40625 15.921875 
L 64.40625 5.609375 
Q 59.234375 2.09375 53.4375 0.328125 
Q 47.65625 -1.421875 41.21875 -1.421875 
Q 24.65625 -1.421875 15.125 8.703125 
Q 5.609375 18.84375 5.609375 36.375 
Q 5.609375 53.953125 15.125 64.078125 
Q 24.65625 74.21875 41.21875 74.21875 
Q 47.75 74.21875 53.53125 72.484375 
Q 59.328125 70.75 64.40625 67.28125 
" id="DejaVuSans-43"/>
     <path d="M 31 75.875 
Q 24.46875 64.65625 21.28125 53.65625 
Q 18.109375 42.671875 18.109375 31.390625 
Q 18.109375 20.125 21.3125 9.0625 
Q 24.515625 -2 31 -13.1875 
L 23.1875 -13.1875 
Q 15.875 -1.703125 12.234375 9.375 
Q 8.59375 20.453125 8.59375 31.390625 
Q 8.59375 42.28125 12.203125 53.3125 
Q 15.828125 64.359375 23.1875 75.875 
z
" id="DejaVuSans-28"/>
     <path d="M 37.796875 64.3125 
L 12.890625 25.390625 
L 37.796875 25.390625 
z
M 35.203125 72.90625 
L 47.609375 72.90625 
L 47.609375 25.390625 
L 58.015625 25.390625 
L 58.015625 17.1875 
L 47.609375 17.1875 
L 47.609375 0 
L 37.796875 0 
L 37.796875 17.1875 
L 4.890625 17.1875 
L 4.890625 26.703125 
z
" id="DejaVuSans-34"/>
     <path d="M 10.984375 1.515625 
L 10.984375 10.5 
Q 14.703125 8.734375 18.5 7.8125 
Q 22.3125 6.890625 25.984375 6.890625 
Q 35.75 6.890625 40.890625 13.453125 
Q 46.046875 20.015625 46.78125 33.40625 
Q 43.953125 29.203125 39.59375 26.953125 
Q 35.25 24.703125 29.984375 24.703125 
Q 19.046875 24.703125 12.671875 31.3125 
Q 6.296875 37.9375 6.296875 49.421875 
Q 6.296875 60.640625 12.9375 67.421875 
Q 19.578125 74.21875 30.609375 74.21875 
Q 43.265625 74.21875 49.921875 64.515625 
Q 56.59375 54.828125 56.59375 36.375 
Q 56.59375 19.140625 48.40625 8.859375 
Q 40.234375 -1.421875 26.421875 -1.421875 
Q 22.703125 -1.421875 18.890625 -0.6875 
Q 15.09375 0.046875 10.984375 1.515625 
M 30.609375 32.421875 
Q 37.25 32.421875 41.125 36.953125 
Q 45.015625 41.5 45.015625 49.421875 
Q 45.015625 57.28125 41.125 61.84375 
Q 37.25 66.40625 30.609375 66.40625 
Q 23.96875 66.40625 20.09375 61.84375 
Q 16.21875 57.28125 16.21875 49.421875 
Q 16.21875 41.5 20.09375 36.953125 
Q 23.96875 32.421875 30.609375 32.421875 
" id="DejaVuSans-39"/>
     <path d="M 8.015625 75.875 
L 15.828125 75.875 
Q 23.140625 64.359375 26.78125 53.3125 
Q 30.421875 42.28125 30.421875 31.390625 
Q 30.421875 20.453125 26.78125 9.375 
Q 23.140625 -1.703125 15.828125 -13.1875 
L 8.015625 -13.1875 
Q 14.5 -2 17.703125 9.0625 
Q 20.90625 20.125 20.90625 31.390625 
Q 20.90625 42.671875 17.703125 53.65625 
Q 14.5 64.65625 8.015625 75.875 
" id="DejaVuSans-29"/>
    </defs>
    <g transform="translate(154.618371 36.336)scale(0.11 -0.11)">
     <use xlink:href="#DejaVuSans-43"/>
     <use x="69.824219" xlink:href="#DejaVuSans-6c"/>
     <use x="97.607422" xlink:href="#DejaVuSans-75"/>
     <use x="160.986328" xlink:href="#DejaVuSans-73"/>
     <use x="213.085938" xlink:href="#DejaVuSans-74"/>
     <use x="252.294922" xlink:href="#DejaVuSans-65"/>
     <use x="313.818359" xlink:href="#DejaVuSans-72"/>
     <use x="354.931641" xlink:href="#DejaVuSans-20"/>
     <use x="386.71875" xlink:href="#DejaVuSans-31"/>
     <use x="450.341797" xlink:href="#DejaVuSans-20"/>
     <use x="482.128906" xlink:href="#DejaVuSans-28"/>
     <use x="521.142578" xlink:href="#DejaVuSans-31"/>
     <use x="584.765625" xlink:href="#DejaVuSans-34"/>
     <use x="648.388672" xlink:href="#DejaVuSans-31"/>
     <use x="712.011719" xlink:href="#DejaVuSans-39"/>
     <use x="775.634766" xlink:href="#DejaVuSans-20"/>
     <use x="807.421875" xlink:href="#DejaVuSans-74"/>
     <use x="846.630859" xlink:href="#DejaVuSans-65"/>
     <use x="908.154297" xlink:href="#DejaVuSans-72"/>
     <use x="949.251953" xlink:href="#DejaVuSans-6d"/>
     <use x="1046.664062" xlink:href="#DejaVuSans-73"/>
     <use x="1098.763672" xlink:href="#DejaVuSans-29"/>
    </g>
   </g>
  </g>
  <g id="axes_2">
   <g id="patch_12">
    <path d="M 97.27 311.56 
L 337.119243 311.56 
L 337.119243 203.238083 
L 97.27 203.238083 
z
" style="fill:#e5e5e5;"/>
   </g>
   <g id="matplotlib.axis_3">
    <g id="xtick_7">
     <g id="line2d_18">
      <path clip-path="url(#p89b0d9cd53)" d="M 97.27 311.56 
L 97.27 203.238083 
" style="fill:none;stroke:#ffffff;stroke-linecap:square;stroke-width:0.8;"/>
     </g>
     <g id="text_14">
      <!-- 0 -->
      <g style="fill:#555555;" transform="translate(94.08875 326.158437)scale(0.1 -0.1)">
       <use xlink:href="#DejaVuSans-30"/>
      </g>
     </g>
    </g>
    <g id="xtick_8">
     <g id="line2d_19">
      <path clip-path="url(#p89b0d9cd53)" d="M 133.158115 311.56 
L 133.158115 203.238083 
" style="fill:none;stroke:#ffffff;stroke-linecap:square;stroke-width:0.8;"/>
     </g>
     <g id="text_15">
      <!-- 200 -->
      <g style="fill:#555555;" transform="translate(123.614365 326.158437)scale(0.1 -0.1)">
       <use xlink:href="#DejaVuSans-32"/>
       <use x="63.623047" xlink:href="#DejaVuSans-30"/>
       <use x="127.246094" xlink:href="#DejaVuSans-30"/>
      </g>
     </g>
    </g>
    <g id="xtick_9">
     <g id="line2d_20">
      <path clip-path="url(#p89b0d9cd53)" d="M 169.046229 311.56 
L 169.046229 203.238083 
" style="fill:none;stroke:#ffffff;stroke-linecap:square;stroke-width:0.8;"/>
     </g>
     <g id="text_16">
      <!-- 400 -->
      <g style="fill:#555555;" transform="translate(159.502479 326.158437)scale(0.1 -0.1)">
       <use xlink:href="#DejaVuSans-34"/>
       <use x="63.623047" xlink:href="#DejaVuSans-30"/>
       <use x="127.246094" xlink:href="#DejaVuSans-30"/>
      </g>
     </g>
    </g>
    <g id="xtick_10">
     <g id="line2d_21">
      <path clip-path="url(#p89b0d9cd53)" d="M 204.934344 311.56 
L 204.934344 203.238083 
" style="fill:none;stroke:#ffffff;stroke-linecap:square;stroke-width:0.8;"/>
     </g>
     <g id="text_17">
      <!-- 600 -->
      <defs>
       <path d="M 33.015625 40.375 
Q 26.375 40.375 22.484375 35.828125 
Q 18.609375 31.296875 18.609375 23.390625 
Q 18.609375 15.53125 22.484375 10.953125 
Q 26.375 6.390625 33.015625 6.390625 
Q 39.65625 6.390625 43.53125 10.953125 
Q 47.40625 15.53125 47.40625 23.390625 
Q 47.40625 31.296875 43.53125 35.828125 
Q 39.65625 40.375 33.015625 40.375 
M 52.59375 71.296875 
L 52.59375 62.3125 
Q 48.875 64.0625 45.09375 64.984375 
Q 41.3125 65.921875 37.59375 65.921875 
Q 27.828125 65.921875 22.671875 59.328125 
Q 17.53125 52.734375 16.796875 39.40625 
Q 19.671875 43.65625 24.015625 45.921875 
Q 28.375 48.1875 33.59375 48.1875 
Q 44.578125 48.1875 50.953125 41.515625 
Q 57.328125 34.859375 57.328125 23.390625 
Q 57.328125 12.15625 50.6875 5.359375 
Q 44.046875 -1.421875 33.015625 -1.421875 
Q 20.359375 -1.421875 13.671875 8.265625 
Q 6.984375 17.96875 6.984375 36.375 
Q 6.984375 53.65625 15.1875 63.9375 
Q 23.390625 74.21875 37.203125 74.21875 
Q 40.921875 74.21875 44.703125 73.484375 
Q 48.484375 72.75 52.59375 71.296875 
" id="DejaVuSans-36"/>
      </defs>
      <g style="fill:#555555;" transform="translate(195.390594 326.158437)scale(0.1 -0.1)">
       <use xlink:href="#DejaVuSans-36"/>
       <use x="63.623047" xlink:href="#DejaVuSans-30"/>
       <use x="127.246094" xlink:href="#DejaVuSans-30"/>
      </g>
     </g>
    </g>
    <g id="xtick_11">
     <g id="line2d_22">
      <path clip-path="url(#p89b0d9cd53)" d="M 240.822459 311.56 
L 240.822459 203.238083 
" style="fill:none;stroke:#ffffff;stroke-linecap:square;stroke-width:0.8;"/>
     </g>
     <g id="text_18">
      <!-- 800 -->
      <defs>
       <path d="M 31.78125 34.625 
Q 24.75 34.625 20.71875 30.859375 
Q 16.703125 27.09375 16.703125 20.515625 
Q 16.703125 13.921875 20.71875 10.15625 
Q 24.75 6.390625 31.78125 6.390625 
Q 38.8125 6.390625 42.859375 10.171875 
Q 46.921875 13.96875 46.921875 20.515625 
Q 46.921875 27.09375 42.890625 30.859375 
Q 38.875 34.625 31.78125 34.625 
M 21.921875 38.8125 
Q 15.578125 40.375 12.03125 44.71875 
Q 8.5 49.078125 8.5 55.328125 
Q 8.5 64.0625 14.71875 69.140625 
Q 20.953125 74.21875 31.78125 74.21875 
Q 42.671875 74.21875 48.875 69.140625 
Q 55.078125 64.0625 55.078125 55.328125 
Q 55.078125 49.078125 51.53125 44.71875 
Q 48 40.375 41.703125 38.8125 
Q 48.828125 37.15625 52.796875 32.3125 
Q 56.78125 27.484375 56.78125 20.515625 
Q 56.78125 9.90625 50.3125 4.234375 
Q 43.84375 -1.421875 31.78125 -1.421875 
Q 19.734375 -1.421875 13.25 4.234375 
Q 6.78125 9.90625 6.78125 20.515625 
Q 6.78125 27.484375 10.78125 32.3125 
Q 14.796875 37.15625 21.921875 38.8125 
M 18.3125 54.390625 
Q 18.3125 48.734375 21.84375 45.5625 
Q 25.390625 42.390625 31.78125 42.390625 
Q 38.140625 42.390625 41.71875 45.5625 
Q 45.3125 48.734375 45.3125 54.390625 
Q 45.3125 60.0625 41.71875 63.234375 
Q 38.140625 66.40625 31.78125 66.40625 
Q 25.390625 66.40625 21.84375 63.234375 
Q 18.3125 60.0625 18.3125 54.390625 
" id="DejaVuSans-38"/>
      </defs>
      <g style="fill:#555555;" transform="translate(231.278709 326.158437)scale(0.1 -0.1)">
       <use xlink:href="#DejaVuSans-38"/>
       <use x="63.623047" xlink:href="#DejaVuSans-30"/>
       <use x="127.246094" xlink:href="#DejaVuSans-30"/>
      </g>
     </g>
    </g>
    <g id="xtick_12">
     <g id="line2d_23">
      <path clip-path="url(#p89b0d9cd53)" d="M 276.710573 311.56 
L 276.710573 203.238083 
" style="fill:none;stroke:#ffffff;stroke-linecap:square;stroke-width:0.8;"/>
     </g>
     <g id="text_19">
      <!-- 1000 -->
      <g style="fill:#555555;" transform="translate(263.985573 326.158437)scale(0.1 -0.1)">
       <use xlink:href="#DejaVuSans-31"/>
       <use x="63.623047" xlink:href="#DejaVuSans-30"/>
       <use x="127.246094" xlink:href="#DejaVuSans-30"/>
       <use x="190.869141" xlink:href="#DejaVuSans-30"/>
      </g>
     </g>
    </g>
    <g id="xtick_13">
     <g id="line2d_24">
      <path clip-path="url(#p89b0d9cd53)" d="M 312.598688 311.56 
L 312.598688 203.238083 
" style="fill:none;stroke:#ffffff;stroke-linecap:square;stroke-width:0.8;"/>
     </g>
     <g id="text_20">
      <!-- 1200 -->
      <g style="fill:#555555;" transform="translate(299.873688 326.158437)scale(0.1 -0.1)">
       <use xlink:href="#DejaVuSans-31"/>
       <use x="63.623047" xlink:href="#DejaVuSans-32"/>
       <use x="127.246094" xlink:href="#DejaVuSans-30"/>
       <use x="190.869141" xlink:href="#DejaVuSans-30"/>
      </g>
     </g>
    </g>
    <g id="text_21">
     <!-- number of occurences -->
     <g style="fill:#555555;" transform="translate(166.823449 339.076719)scale(0.09 -0.09)">
      <use xlink:href="#DejaVuSans-6e"/>
      <use x="63.378906" xlink:href="#DejaVuSans-75"/>
      <use x="126.757812" xlink:href="#DejaVuSans-6d"/>
      <use x="224.169922" xlink:href="#DejaVuSans-62"/>
      <use x="287.646484" xlink:href="#DejaVuSans-65"/>
      <use x="349.169922" xlink:href="#DejaVuSans-72"/>
      <use x="390.283203" xlink:href="#DejaVuSans-20"/>
      <use x="422.070312" xlink:href="#DejaVuSans-6f"/>
      <use x="483.251953" xlink:href="#DejaVuSans-66"/>
      <use x="518.457031" xlink:href="#DejaVuSans-20"/>
      <use x="550.244141" xlink:href="#DejaVuSans-6f"/>
      <use x="611.425781" xlink:href="#DejaVuSans-63"/>
      <use x="666.40625" xlink:href="#DejaVuSans-63"/>
      <use x="721.386719" xlink:href="#DejaVuSans-75"/>
      <use x="784.765625" xlink:href="#DejaVuSans-72"/>
      <use x="825.847656" xlink:href="#DejaVuSans-65"/>
      <use x="887.371094" xlink:href="#DejaVuSans-6e"/>
      <use x="950.75" xlink:href="#DejaVuSans-63"/>
      <use x="1005.730469" xlink:href="#DejaVuSans-65"/>
      <use x="1067.253906" xlink:href="#DejaVuSans-73"/>
     </g>
    </g>
   </g>
   <g id="matplotlib.axis_4">
    <g id="ytick_6">
     <g id="line2d_25">
      <path clip-path="url(#p89b0d9cd53)" d="M 97.27 290.223865 
L 337.119243 290.223865 
" style="fill:none;stroke:#ffffff;stroke-linecap:square;stroke-width:0.8;"/>
     </g>
     <g id="text_22">
      <!-- research            -->
      <g style="fill:#555555;" transform="translate(15.548047 293.833123)scale(0.095 -0.095)">
       <use xlink:href="#DejaVuSans-72"/>
       <use x="41.082031" xlink:href="#DejaVuSans-65"/>
       <use x="102.605469" xlink:href="#DejaVuSans-73"/>
       <use x="154.705078" xlink:href="#DejaVuSans-65"/>
       <use x="216.228516" xlink:href="#DejaVuSans-61"/>
       <use x="277.507812" xlink:href="#DejaVuSans-72"/>
       <use x="318.589844" xlink:href="#DejaVuSans-63"/>
       <use x="373.570312" xlink:href="#DejaVuSans-68"/>
       <use x="436.949219" xlink:href="#DejaVuSans-20"/>
       <use x="468.736328" xlink:href="#DejaVuSans-20"/>
       <use x="500.523438" xlink:href="#DejaVuSans-20"/>
       <use x="532.310547" xlink:href="#DejaVuSans-20"/>
       <use x="564.097656" xlink:href="#DejaVuSans-20"/>
       <use x="595.884766" xlink:href="#DejaVuSans-20"/>
       <use x="627.671875" xlink:href="#DejaVuSans-20"/>
       <use x="659.458984" xlink:href="#DejaVuSans-20"/>
       <use x="691.246094" xlink:href="#DejaVuSans-20"/>
       <use x="723.033203" xlink:href="#DejaVuSans-20"/>
       <use x="754.820312" xlink:href="#DejaVuSans-20"/>
      </g>
     </g>
    </g>
    <g id="ytick_7">
     <g id="line2d_26">
      <path clip-path="url(#p89b0d9cd53)" d="M 97.27 269.70835 
L 337.119243 269.70835 
" style="fill:none;stroke:#ffffff;stroke-linecap:square;stroke-width:0.8;"/>
     </g>
     <g id="text_23">
      <!-- libraries           -->
      <defs>
       <path d="M 9.421875 54.6875 
L 18.40625 54.6875 
L 18.40625 0 
L 9.421875 0 
z
M 9.421875 75.984375 
L 18.40625 75.984375 
L 18.40625 64.59375 
L 9.421875 64.59375 
z
" id="DejaVuSans-69"/>
      </defs>
      <g style="fill:#555555;" transform="translate(21.702266 273.317608)scale(0.095 -0.095)">
       <use xlink:href="#DejaVuSans-6c"/>
       <use x="27.783203" xlink:href="#DejaVuSans-69"/>
       <use x="55.566406" xlink:href="#DejaVuSans-62"/>
       <use x="119.042969" xlink:href="#DejaVuSans-72"/>
       <use x="160.15625" xlink:href="#DejaVuSans-61"/>
       <use x="221.435547" xlink:href="#DejaVuSans-72"/>
       <use x="262.548828" xlink:href="#DejaVuSans-69"/>
       <use x="290.332031" xlink:href="#DejaVuSans-65"/>
       <use x="351.855469" xlink:href="#DejaVuSans-73"/>
       <use x="403.955078" xlink:href="#DejaVuSans-20"/>
       <use x="435.742188" xlink:href="#DejaVuSans-20"/>
       <use x="467.529297" xlink:href="#DejaVuSans-20"/>
       <use x="499.316406" xlink:href="#DejaVuSans-20"/>
       <use x="531.103516" xlink:href="#DejaVuSans-20"/>
       <use x="562.890625" xlink:href="#DejaVuSans-20"/>
       <use x="594.677734" xlink:href="#DejaVuSans-20"/>
       <use x="626.464844" xlink:href="#DejaVuSans-20"/>
       <use x="658.251953" xlink:href="#DejaVuSans-20"/>
       <use x="690.039062" xlink:href="#DejaVuSans-20"/>
      </g>
     </g>
    </g>
    <g id="ytick_8">
     <g id="line2d_27">
      <path clip-path="url(#p89b0d9cd53)" d="M 97.27 249.192836 
L 337.119243 249.192836 
" style="fill:none;stroke:#ffffff;stroke-linecap:square;stroke-width:0.8;"/>
     </g>
     <g id="text_24">
      <!-- patients            -->
      <g style="fill:#555555;" transform="translate(18.303047 252.802094)scale(0.095 -0.095)">
       <use xlink:href="#DejaVuSans-70"/>
       <use x="63.476562" xlink:href="#DejaVuSans-61"/>
       <use x="124.755859" xlink:href="#DejaVuSans-74"/>
       <use x="163.964844" xlink:href="#DejaVuSans-69"/>
       <use x="191.748047" xlink:href="#DejaVuSans-65"/>
       <use x="253.271484" xlink:href="#DejaVuSans-6e"/>
       <use x="316.650391" xlink:href="#DejaVuSans-74"/>
       <use x="355.859375" xlink:href="#DejaVuSans-73"/>
       <use x="407.958984" xlink:href="#DejaVuSans-20"/>
       <use x="439.746094" xlink:href="#DejaVuSans-20"/>
       <use x="471.533203" xlink:href="#DejaVuSans-20"/>
       <use x="503.320312" xlink:href="#DejaVuSans-20"/>
       <use x="535.107422" xlink:href="#DejaVuSans-20"/>
       <use x="566.894531" xlink:href="#DejaVuSans-20"/>
       <use x="598.681641" xlink:href="#DejaVuSans-20"/>
       <use x="630.46875" xlink:href="#DejaVuSans-20"/>
       <use x="662.255859" xlink:href="#DejaVuSans-20"/>
       <use x="694.042969" xlink:href="#DejaVuSans-20"/>
       <use x="725.830078" xlink:href="#DejaVuSans-20"/>
      </g>
     </g>
    </g>
    <g id="ytick_9">
     <g id="line2d_28">
      <path clip-path="url(#p89b0d9cd53)" d="M 97.27 228.677321 
L 337.119243 228.677321 
" style="fill:none;stroke:#ffffff;stroke-linecap:square;stroke-width:0.8;"/>
     </g>
     <g id="text_25">
      <!-- system              -->
      <g style="fill:#555555;" transform="translate(16.676172 232.286579)scale(0.095 -0.095)">
       <use xlink:href="#DejaVuSans-73"/>
       <use x="52.099609" xlink:href="#DejaVuSans-79"/>
       <use x="111.279297" xlink:href="#DejaVuSans-73"/>
       <use x="163.378906" xlink:href="#DejaVuSans-74"/>
       <use x="202.587891" xlink:href="#DejaVuSans-65"/>
       <use x="264.111328" xlink:href="#DejaVuSans-6d"/>
       <use x="361.523438" xlink:href="#DejaVuSans-20"/>
       <use x="393.310547" xlink:href="#DejaVuSans-20"/>
       <use x="425.097656" xlink:href="#DejaVuSans-20"/>
       <use x="456.884766" xlink:href="#DejaVuSans-20"/>
       <use x="488.671875" xlink:href="#DejaVuSans-20"/>
       <use x="520.458984" xlink:href="#DejaVuSans-20"/>
       <use x="552.246094" xlink:href="#DejaVuSans-20"/>
       <use x="584.033203" xlink:href="#DejaVuSans-20"/>
       <use x="615.820312" xlink:href="#DejaVuSans-20"/>
       <use x="647.607422" xlink:href="#DejaVuSans-20"/>
       <use x="679.394531" xlink:href="#DejaVuSans-20"/>
       <use x="711.181641" xlink:href="#DejaVuSans-20"/>
       <use x="742.96875" xlink:href="#DejaVuSans-20"/>
      </g>
     </g>
    </g>
    <g id="ytick_10">
     <g id="line2d_29">
      <path clip-path="url(#p89b0d9cd53)" d="M 97.27 208.161807 
L 337.119243 208.161807 
" style="fill:none;stroke:#ffffff;stroke-linecap:square;stroke-width:0.8;"/>
     </g>
     <g id="text_26">
      <!-- library             -->
      <g style="fill:#555555;" transform="translate(23.474609 211.771064)scale(0.095 -0.095)">
       <use xlink:href="#DejaVuSans-6c"/>
       <use x="27.783203" xlink:href="#DejaVuSans-69"/>
       <use x="55.566406" xlink:href="#DejaVuSans-62"/>
       <use x="119.042969" xlink:href="#DejaVuSans-72"/>
       <use x="160.15625" xlink:href="#DejaVuSans-61"/>
       <use x="221.435547" xlink:href="#DejaVuSans-72"/>
       <use x="262.548828" xlink:href="#DejaVuSans-79"/>
       <use x="321.728516" xlink:href="#DejaVuSans-20"/>
       <use x="353.515625" xlink:href="#DejaVuSans-20"/>
       <use x="385.302734" xlink:href="#DejaVuSans-20"/>
       <use x="417.089844" xlink:href="#DejaVuSans-20"/>
       <use x="448.876953" xlink:href="#DejaVuSans-20"/>
       <use x="480.664062" xlink:href="#DejaVuSans-20"/>
       <use x="512.451172" xlink:href="#DejaVuSans-20"/>
       <use x="544.238281" xlink:href="#DejaVuSans-20"/>
       <use x="576.025391" xlink:href="#DejaVuSans-20"/>
       <use x="607.8125" xlink:href="#DejaVuSans-20"/>
       <use x="639.599609" xlink:href="#DejaVuSans-20"/>
       <use x="671.386719" xlink:href="#DejaVuSans-20"/>
      </g>
     </g>
    </g>
   </g>
   <g id="patch_13">
    <path clip-path="url(#p89b0d9cd53)" d="M 97.27 306.636277 
L 203.319379 306.636277 
L 203.319379 290.223865 
L 97.27 290.223865 
z
" style="fill:#e24a33;"/>
   </g>
   <g id="patch_14">
    <path clip-path="url(#p89b0d9cd53)" d="M 97.27 286.120762 
L 206.90819 286.120762 
L 206.90819 269.70835 
L 97.27 269.70835 
z
" style="fill:#e24a33;"/>
   </g>
   <g id="patch_15">
    <path clip-path="url(#p89b0d9cd53)" d="M 97.27 265.605247 
L 213.18861 265.605247 
L 213.18861 249.192836 
L 97.27 249.192836 
z
" style="fill:#e24a33;"/>
   </g>
   <g id="patch_16">
    <path clip-path="url(#p89b0d9cd53)" d="M 97.27 245.089733 
L 249.256166 245.089733 
L 249.256166 228.677321 
L 97.27 228.677321 
z
" style="fill:#e24a33;"/>
   </g>
   <g id="patch_17">
    <path clip-path="url(#p89b0d9cd53)" d="M 97.27 224.574218 
L 325.69785 224.574218 
L 325.69785 208.161807 
L 97.27 208.161807 
z
" style="fill:#e24a33;"/>
   </g>
   <g id="patch_18">
    <path d="M 97.27 311.56 
L 97.27 203.238083 
" style="fill:none;stroke:#ffffff;stroke-linecap:square;stroke-linejoin:miter;"/>
   </g>
   <g id="patch_19">
    <path d="M 337.119243 311.56 
L 337.119243 203.238083 
" style="fill:none;stroke:#ffffff;stroke-linecap:square;stroke-linejoin:miter;"/>
   </g>
   <g id="patch_20">
    <path d="M 97.27 311.56 
L 337.119243 311.56 
" style="fill:none;stroke:#ffffff;stroke-linecap:square;stroke-linejoin:miter;"/>
   </g>
   <g id="patch_21">
    <path d="M 97.27 203.238083 
L 337.119243 203.238083 
" style="fill:none;stroke:#ffffff;stroke-linecap:square;stroke-linejoin:miter;"/>
   </g>
   <g id="text_27">
    <!-- Cluster 2 (2884 terms) -->
    <g transform="translate(154.618371 197.238083)scale(0.11 -0.11)">
     <use xlink:href="#DejaVuSans-43"/>
     <use x="69.824219" xlink:href="#DejaVuSans-6c"/>
     <use x="97.607422" xlink:href="#DejaVuSans-75"/>
     <use x="160.986328" xlink:href="#DejaVuSans-73"/>
     <use x="213.085938" xlink:href="#DejaVuSans-74"/>
     <use x="252.294922" xlink:href="#DejaVuSans-65"/>
     <use x="313.818359" xlink:href="#DejaVuSans-72"/>
     <use x="354.931641" xlink:href="#DejaVuSans-20"/>
     <use x="386.71875" xlink:href="#DejaVuSans-32"/>
     <use x="450.341797" xlink:href="#DejaVuSans-20"/>
     <use x="482.128906" xlink:href="#DejaVuSans-28"/>
     <use x="521.142578" xlink:href="#DejaVuSans-32"/>
     <use x="584.765625" xlink:href="#DejaVuSans-38"/>
     <use x="648.388672" xlink:href="#DejaVuSans-38"/>
     <use x="712.011719" xlink:href="#DejaVuSans-34"/>
     <use x="775.634766" xlink:href="#DejaVuSans-20"/>
     <use x="807.421875" xlink:href="#DejaVuSans-74"/>
     <use x="846.630859" xlink:href="#DejaVuSans-65"/>
     <use x="908.154297" xlink:href="#DejaVuSans-72"/>
     <use x="949.251953" xlink:href="#DejaVuSans-6d"/>
     <use x="1046.664062" xlink:href="#DejaVuSans-73"/>
     <use x="1098.763672" xlink:href="#DejaVuSans-29"/>
    </g>
   </g>
  </g>
  <g id="text_28">
   <!-- Top 5 terms -->
   <defs>
    <path d="M -0.296875 72.90625 
L 61.375 72.90625 
L 61.375 64.59375 
L 35.5 64.59375 
L 35.5 0 
L 25.59375 0 
L 25.59375 64.59375 
L -0.296875 64.59375 
z
" id="DejaVuSans-54"/>
   </defs>
   <g transform="translate(131.1 18.453656)scale(0.15 -0.15)">
    <use xlink:href="#DejaVuSans-54"/>
    <use x="60.818359" xlink:href="#DejaVuSans-6f"/>
    <use x="122" xlink:href="#DejaVuSans-70"/>
    <use x="185.476562" xlink:href="#DejaVuSans-20"/>
    <use x="217.263672" xlink:href="#DejaVuSans-35"/>
    <use x="280.886719" xlink:href="#DejaVuSans-20"/>
    <use x="312.673828" xlink:href="#DejaVuSans-74"/>
    <use x="351.882812" xlink:href="#DejaVuSans-65"/>
    <use x="413.40625" xlink:href="#DejaVuSans-72"/>
    <use x="454.503906" xlink:href="#DejaVuSans-6d"/>
    <use x="551.916016" xlink:href="#DejaVuSans-73"/>
   </g>
  </g>
 </g>
 <defs>
  <clipPath id="pc010152a25">
   <rect height="108.321917" width="239.849243" x="97.27" y="42.336"/>
  </clipPath>
  <clipPath id="p89b0d9cd53">
   <rect height="108.321917" width="239.849243" x="97.27" y="203.238083"/>
  </clipPath>
 </defs>
</svg>
